# xmcd
#
# Track frame offsets:
#	150
#	19121
#	36849
#	61327
#	77865
#	97108
#	113265
#	132526
#	146141
#	165466
#	177071
#	208802
#	231643
#
# Disc length: 3431 seconds
# Revision: 0
# Processed by: cddbd v1.5.2PL0 Copyright (c) Steve Scherf et al.
# Submitted via: dBpowerAMP V12.0
#
DISCID=b60d650d
DTITLE=Austin Young and No Difference - Blue as Can Be
DYEAR=2013
DGENRE=Blues
TTITLE0=Thunderhead
TTITLE1=Blue As Can Be
TTITLE2=Disappearing Railroad Blues
TTITLE3=Signal
TTITLE4=Springtime Snow
TTITLE5=Magdalena
TTITLE6=Not As Strong
TTITLE7=Who's Coming Out?
TTITLE8=Borrowed Time
TTITLE9=That's It
TTITLE10=Give Me One Good Reason
TTITLE11=Walking Through
TTITLE12=Miss You Moore
EXTD=
EXTT0=
EXTT1=
EXTT2=
EXTT3=
EXTT4=
EXTT5=
EXTT6=
EXTT7=
EXTT8=
EXTT9=
EXTT10=
EXTT11=
EXTT12=
PLAYORDER=
